HIERARCHY
ROOT ui
{
	 OFFSET 0 0 0
	 CHANNELS 3 XPosition YPosition Z Position
	 EndSite
	 {
	 OFFSET 0 -1 0
	 }
}
ROOT li
{
	 OFFSET 0 0 0
	 CHANNELS 3 XPosition YPosition Z Position
	 EndSite
	 {
	 OFFSET 0 -1 0
	 }
}
ROOT ul
{
	 OFFSET 0 0 0
	 CHANNELS 3 XPosition YPosition Z Position
	 EndSite
	 {
	 OFFSET 0 -1 0
	 }
}
ROOT ll
{
	 OFFSET 0 0 0
	 CHANNELS 3 XPosition YPosition Z Position
	 EndSite
	 {
	 OFFSET 0 -1 0
	 }
}
ROOT tt
{
	 OFFSET 0 0 0
	 CHANNELS 3 XPosition YPosition Z Position
	 EndSite
	 {
	 OFFSET 0 -1 0
	 }
}
ROOT tb
{
	 OFFSET 0 0 0
	 CHANNELS 3 XPosition YPosition Z Position
	 EndSite
	 {
	 OFFSET 0 -1 0
	 }
}
ROOT td
{
	 OFFSET 0 0 0
	 CHANNELS 3 XPosition YPosition Z Position
	 EndSite
	 {
	 OFFSET 0 -1 0
	 }
}
ROOT v
{
	 OFFSET 0 0 0
	 CHANNELS 3 XPosition YPosition Z Position
	 EndSite
	 {
	 OFFSET 0 -1 0
	 }
}
ROOT bn
{
	 OFFSET 0 0 0
	 CHANNELS 3 XPosition YPosition Z Position
	 EndSite
	 {
	 OFFSET 0 -1 0
	 }
}
MOTION
Frames: 11
Frame Time: 0.002
0.030727502822875976	0.0011874250173568726	0		0.46348904418945314	-2.3039013671875	0		-1.135139892578125	0.020939561843872072	0		-0.5435523681640625	-2.5206240234375	0		2.183052978515625	-1.2747149658203125	0		3.748116455078125	-0.2991060485839844	0		4.89300146484375	0.22535845947265626	0		5.782681640625	0.24545628356933594	0		-0.43349710083007814	5.83471630859375	0		
0.027047441482543944	-0.0014371119737625123	0		0.49366558837890623	-2.31884521484375	0		-1.1596895751953125	0.03252410888671875	0		-0.587283203125	-2.524871337890625	0		2.19351220703125	-1.26049853515625	0		3.747459716796875	-0.29880859375	0		4.89322265625	0.21163179016113282	0		5.7750830078125	0.24608314514160157	0		-0.4010168151855469	5.84076513671875	0		
-0.051629489898681644	6.37012004852295E-4	0		0.45804147338867185	-2.307177001953125	0		-1.1203802490234376	0.03252597045898437	0		-0.5591077270507813	-2.534776611328125	0		2.181978271484375	-1.2410804443359376	0		3.74458984375	-0.31749749755859374	0		4.8793427734375	0.1910260467529297	0		5.79024072265625	0.23579917907714842	0		-0.40161093139648435	5.841125	0		
0.02562607765197754	-7.267739772796631E-4	0		0.47510696411132813	-2.32399365234375	0		-1.1611097412109375	0.033276622772216796	0		-0.5859519653320312	-2.541166259765625	0		2.127428955078125	-1.218264404296875	0		3.754064697265625	-0.2943048095703125	0		4.87861474609375	0.19129061889648438	0		5.79825537109375	0.2308443603515625	0		-0.4012398681640625	5.8404814453125	0		
-0.049111217498779294	0.0043241257667541505	0		0.4693989562988281	-2.31059423828125	0		-1.16471923828125	0.051693359375	0		-0.5888135986328125	-2.5437705078125	0		2.121921875	-1.18590234375	0		3.7381416015625	-0.3088838195800781	0		4.8727763671875	0.18459349060058594	0		5.78143359375	0.2679503173828125	0		-0.3877774658203125	5.8527236328125	0		
0.024024559020996095	5.7819997891783714E-6	0		0.4595921630859375	-2.30215283203125	0		-1.165541748046875	0.05209230804443359	0		-0.6066817626953125	-2.541227783203125	0		2.0923212890625	-1.158316650390625	0		3.74132861328125	-0.30664501953125	0		4.86876171875	0.16387010192871093	0		5.7863369140625	0.21285313415527343	0		-0.38845474243164063	5.853103515625	0		
-0.0548299560546875	0.0021093709468841555	0		0.4826124877929687	-2.307014404296875	0		-1.1393153076171876	0.06224757766723633	0		-0.5667810668945312	-2.5582177734375	0		2.09457080078125	-1.14202880859375	0		3.710416748046875	-0.31009420776367186	0		4.85384375	0.15823980712890626	0		5.7851220703125	0.244376220703125	0		-0.4052504272460937	5.8436396484375	0		
0.022252906799316408	7.598999738693237E-4	0		0.48163595581054686	-2.3066494140625	0		-1.1521234130859375	0.07277548217773437	0		-0.6098011474609375	-2.56142578125	0		2.072978515625	-1.104518798828125	0		3.69647509765625	-0.31270794677734376	0		4.8538037109375	0.1434595489501953	0		5.784474609375	0.24472117614746094	0		-0.4059721374511719	5.8440322265625	0		
-0.0566655158996582	0.0028772499561309814	0		0.45465423583984377	-2.303037353515625	0		-1.137109375	0.06704904937744141	0		-0.6128397827148437	-2.563001708984375	0		2.0461607666015627	-1.0879625244140625	0		3.696438720703125	-0.32246075439453126	0		4.8278125	0.1369113006591797	0		5.79232470703125	0.2344646453857422	0		-0.3896267700195313	5.85227001953125	0		
0.03332033920288086	-0.004593674182891846	0		0.47752703857421874	-2.31289453125	0		-1.17584130859375	0.08983695983886719	0		-0.6029573974609375	-2.570695556640625	0		2.034421630859375	-1.061551025390625	0		3.71567041015625	-0.30240469360351563	0		4.83280712890625	0.13005783081054687	0		5.798181640625	0.26401373291015623	0		-0.4253938903808594	5.84800244140625	0		
0.027418052673339844	-1.6013500094413756E-4	0		0.5095841064453125	-2.30284033203125	0		-1.0757349853515625	0.09431459045410157	0		-0.5829959106445313	-2.569482177734375	0		1.9947901611328125	-1.02387939453125	0		3.6806337890625	-0.3108482666015625	0		4.81475927734375	0.11840663146972656	0		5.782537109375	0.26634219360351563	0		-0.3930168151855469	5.85609423828125	0		
